<svg xmlns="http://www.w3.org/2000/svg" viewBox="0 0 64 64" width="512" height="512"><defs><linearGradient id="vbg" x1="0" y1="0" x2="0" y2="1"><stop offset="0" stop-color="#2A2A2A"/><stop offset="1" stop-color="#0A0A0A"/></linearGradient></defs><rect width="64" height="64" rx="14" fill="url(#vbg)"/><g transform="translate(14 14) scale(.5625)" color="#fff"><defs><clipPath id="vcl"><circle cx="26.2" cy="35.5" r="6"/></clipPath><clipPath id="vcr"><circle cx="37.8" cy="35.5" r="6"/></clipPath>
<mask id="vmr" maskUnits="userSpaceOnUse" x="-20" y="-20" width="104" height="104"><rect x="-20" y="-20" width="104" height="104" fill="#fff"/><path clip-path="url(#vcl)" d="M40 8V30a8 8 0 0 1-16 0v-5" fill="none" stroke="#000" stroke-width="12"/></mask>
<mask id="vmh" maskUnits="userSpaceOnUse" x="-20" y="-20" width="104" height="104"><rect x="-20" y="-20" width="104" height="104" fill="#fff"/><circle clip-path="url(#vcr)" cx="32" cy="46" r="12" fill="none" stroke="#000" stroke-width="12"/></mask></defs>
<circle cx="32" cy="46" r="12" fill="none" stroke="currentColor" stroke-width="6" mask="url(#vmr)"/>
<path d="M40 8V30a8 8 0 0 1-16 0v-5" fill="none" stroke="currentColor" stroke-width="6" stroke-linecap="round" mask="url(#vmh)"/></g></svg>